<?xml version="1.0" encoding="UTF-8"?>
<svg version="1.1" xmlns="http://www.w3.org/2000/svg" width="4167" height="1250">
<path d="M0 0 C253.77 0 507.54 0 769 0 C769 249.48 769 498.96 769 756 C761.74 756 754.48 756 747 756 C747 729.6 747 703.2 747 676 C698.77776243 675.81858312 650.55658963 675.6877771 602.33407132 675.66726766 C596.62945216 675.66477831 590.92483348 675.66167927 585.22021484 675.65820312 C584.08462007 675.65752139 582.9490253 675.65683966 581.77901857 675.65613727 C563.43789114 675.64367561 545.09724862 675.58192331 526.75630684 675.50166626 C507.90973656 675.42030473 489.06362622 675.39258237 470.21688974 675.41372812 C458.60507781 675.42509359 446.99489462 675.39558084 435.38336973 675.3122649 C427.39998986 675.25900707 419.41763291 675.25827136 411.43417557 675.29715051 C406.84060584 675.31802222 402.24999212 675.31736353 397.65674973 675.25374794 C375.58764929 674.96590777 360.20513516 676.82791098 341.51976275 689.36072516 C337.95868629 691.67744447 334.23182819 693.54883154 330.40234375 695.375 C329.15494367 695.98558015 327.90768663 696.59645271 326.66064453 697.20776367 C325.42008062 697.80618074 324.17901859 698.4035661 322.9375 699 C321.92523346 699.4884288 321.92523346 699.4884288 320.89251709 699.98672485 C251.23235994 733.51857588 176.77746079 756.55667758 79 768 C77.78739502 768.08685059 76.57479004 768.17370117 75.32543945 768.26318359 C65.18996528 768.94897851 55.0909545 769.15626432 44.93383789 769.13037109 C42.43564818 769.12499602 39.93763757 769.1303664 37.43945312 769.13671875 C29.63235824 769.14180327 21.830124 769.0472294 14.03125 768.671875 C12.76732422 768.61354492 11.50339844 768.55521484 10.20117188 768.49511719 C6.87124148 767.98008524 5.46373953 767.42866266 3.0625 765.125 C-0.07235194 760.37522433 -0.29249041 756.24708488 -0.55735683 750.71627426 C-0.59955926 749.84018713 -0.64176169 748.9641 -0.68524298 748.06146477 C-1.21644198 735.62477971 -1.11970436 723.17772408 -1.08732378 710.73256823 C-1.07862728 706.94346642 -1.0759883 703.1543592 -1.07254028 699.36524963 C-1.06569214 692.73671437 -1.05506486 686.10819375 -1.0418998 679.47966814 C-1.02209089 669.49549707 -1.00833948 659.5113235 -0.99568415 649.52714112 C-0.97430924 632.79085292 -0.94829702 616.05457515 -0.91941833 599.31829834 C-0.8803854 576.68860342 -0.84779674 554.05890688 -0.81628418 531.42919922 C-0.73729126 477.03612439 -0.64934868 422.64306285 -0.5625 368.25 C-0.376875 246.7275 -0.19125 125.205 0 0 Z M22 22 C22 49.06 22 76.12 22 104 C67.22439712 104.1985357 112.44838212 104.36466382 157.67309055 104.45958797 C163.01635476 104.47084387 168.35961803 104.48249281 173.70288086 104.49438477 C175.29845309 104.49792596 175.29845309 104.49792596 176.92625909 104.50153869 C194.13339645 104.54066453 211.34026226 104.61160565 228.54723871 104.69437516 C246.21277806 104.77863962 263.87817552 104.82855026 281.54390758 104.84679645 C292.43838152 104.85912488 303.33208783 104.89801374 314.22632539 104.9712482 C321.70433316 105.01894666 329.18194607 105.03317295 336.66009481 105.0215124 C340.97022115 105.0157667 345.27900948 105.02436005 349.5888958 105.07284927 C373.41730899 105.77426108 373.41730899 105.77426108 394 95 C396.10071308 93.77030767 398.22461619 92.57852608 400.37890625 91.4453125 C401.38969238 90.89939453 402.40047852 90.35347656 403.44189453 89.79101562 C404.47169434 89.24123047 405.50149414 88.69144531 406.5625 88.125 C407.68253418 87.52623047 408.80256836 86.92746094 409.95654297 86.31054688 C413.29963376 84.53122861 416.64796543 82.76240467 420 81 C420.92699707 80.51241211 421.85399414 80.02482422 422.80908203 79.52246094 C471.00133712 54.3670156 522.54979355 36.79763922 575 23 C575 22.67 575 22.34 575 22 C392.51 22 210.02 22 22 22 Z M423 103 C423 103.33 423 103.66 423 104 C527.61 104 632.22 104 740 104 C742.47549433 84.05005343 742.47549433 84.05005343 744.1875 64.0625 C744.26790527 62.83321777 744.34831055 61.60393555 744.43115234 60.33740234 C745.17916251 47.8923633 745.20701101 35.4620626 745 23 C661.00607409 21.29742042 573.86288181 39.21070801 423 103 Z M22 126 C22 272.19 22 418.38 22 569 C23.97294755 566.04057868 24.7763467 563.83492323 25.77734375 560.453125 C26.11983154 559.31464111 26.46231934 558.17615723 26.81518555 557.00317383 C27.18554932 555.76462646 27.55591309 554.5260791 27.9375 553.25 C44.80906302 497.84174833 68.10327301 443.79608707 97.36962891 393.78662109 C98.45365719 391.93380605 99.53150211 390.07735897 100.60302734 388.21728516 C116.17172912 361.21378531 133.47172534 334.7165054 152.46875 309.99316406 C154.12665504 307.83513844 155.76707342 305.66446732 157.40625 303.4921875 C165.5979377 292.66716564 174.12429276 282.16036117 182.92553711 271.82617188 C185.74176374 268.51376923 188.48060446 265.15295439 191.1875 261.75 C196.47134323 255.25409237 202.26637302 249.24721547 208.03515625 243.18359375 C210.85513933 240.21916762 213.63459073 237.22440919 216.38256836 234.19335938 C222.16202129 227.82884132 228.18051333 221.7127416 234.25 215.625 C235.51021973 214.35789185 235.51021973 214.35789185 236.79589844 213.06518555 C241.10756621 208.76417334 245.48770277 204.61847749 250.10595703 200.64892578 C253.26228816 197.90107061 256.2755467 195.00321907 259.3125 192.125 C264.45234958 187.29146533 269.68295434 182.67437054 275.19921875 178.26953125 C277.87588628 176.10057192 280.48463368 173.87207349 283.08618164 171.61450195 C289.57432134 165.985308 296.20837699 160.6060472 303.07714844 155.44580078 C305.27734633 153.79146204 307.47048279 152.12794704 309.6640625 150.46484375 C318.65151003 143.67058477 327.69695463 136.99082625 336.97167969 130.59228516 C338.66390428 129.41774499 340.33464822 128.21234158 342 127 C342 126.67 342 126.34 342 126 C236.4 126 130.8 126 22 126 Z M367 136 C365.10381306 137.29352796 363.19276739 138.56599825 361.2578125 139.80078125 C359.54411911 140.96731589 357.83316839 142.13788993 356.125 143.3125 C355.20009766 143.94639648 354.27519531 144.58029297 353.32226562 145.23339844 C339.53713944 154.71836 326.03528788 164.50670052 313 175 C312.36352539 175.51030762 311.72705078 176.02061523 311.07128906 176.54638672 C298.25288288 186.83426811 285.71939901 197.3883531 273.66015625 208.55859375 C271.49481294 210.54587653 269.30155245 212.47250658 267.0625 214.375 C262.74948986 218.10273736 258.79380934 222.17735832 254.79077148 226.23071289 C251.82817461 229.21751187 248.83903222 232.09245328 245.625 234.8125 C242.44578525 237.51779454 239.80623056 240.45079883 237.11328125 243.6328125 C234.36236805 246.71424207 231.43822763 249.59825664 228.5 252.5 C224.39527494 256.56307034 220.40562775 260.64959344 216.6640625 265.0546875 C214.69860986 267.35232932 212.66270129 269.57873123 210.625 271.8125 C206.72636603 276.13260791 203.02496142 280.58071381 199.3671875 285.10546875 C197.3162636 287.61328163 195.22618671 290.0805776 193.11352539 292.53637695 C186.05639212 300.75853741 179.49237938 309.32807576 173 318 C172.41782715 318.77714355 171.8356543 319.55428711 171.23583984 320.35498047 C163.23391052 331.06431304 155.42548999 341.88245223 148 353 C147.4529541 353.81855469 146.9059082 354.63710938 146.34228516 355.48046875 C131.12530966 378.34181113 116.82974946 401.71290355 104 426 C103.51756836 426.90459961 103.03513672 427.80919922 102.53808594 428.74121094 C82.38903834 466.53228177 65.53477911 505.38231954 52 546 C51.77783813 546.66283997 51.55567627 547.32567993 51.32678223 548.00860596 C42.02367125 575.79254394 34.8883644 604.08893309 29.4375 632.875 C29.30903687 633.54781006 29.18057373 634.22062012 29.04821777 634.91381836 C27.82434129 641.38648056 26.94907722 647.40246829 27 654 C69.08967117 654.36715533 111.17915579 654.64862477 153.27011438 654.81704527 C158.25242587 654.83705379 163.23473422 654.85776322 168.21704102 654.87890625 C169.20882397 654.88310322 170.20060692 654.88730018 171.2224439 654.89162433 C187.22874958 654.96102582 203.23412489 655.087054 219.23988078 655.23444474 C235.6940636 655.38468797 252.14776313 655.47306959 268.60260361 655.50541592 C278.73626044 655.52724443 288.86728679 655.59587529 299.00013264 655.72666347 C305.97243052 655.81200895 312.94339225 655.83663255 319.91617308 655.81602204 C323.92526681 655.80588741 327.92980647 655.820086 331.93806458 655.9072876 C353.41046569 656.35145245 367.81195068 652.42133672 385.39540517 639.85214901 C388.71087384 637.49449171 392.13157822 635.39128206 395.61328125 633.2890625 C397.51674022 632.07351306 399.41671921 630.85248999 401.3125 629.625 C402.34189697 628.96201904 403.37129395 628.29903809 404.43188477 627.6159668 C411.51153465 623.0298207 418.44663144 618.30449528 425.23339844 613.29541016 C427.27248541 611.80019243 429.3266543 610.32711958 431.3828125 608.85546875 C440.39150952 602.40230972 449.27087365 595.82676382 458 589 C459.13902648 588.1194081 460.27835756 587.23921007 461.41796875 586.359375 C468.08845694 581.18865549 474.58822432 575.86280763 480.96508789 570.33374023 C484.37914685 567.37520814 487.8409116 564.5031489 491.375 561.6875 C497.43547683 556.76949892 503.05923107 551.41036758 508.71484375 546.0390625 C511.51739098 543.37875936 514.35503006 540.76188732 517.21627808 538.1648407 C523.56968983 532.39070121 529.71689246 526.43860256 535.7746582 520.35571289 C537.32584727 518.79910611 538.88239392 517.24799829 540.43945312 515.69726562 C545.28542001 510.85451875 550.0302365 505.96835934 554.48608398 500.7590332 C556.86734962 497.99221835 559.37808053 495.34950853 561.875 492.6875 C566.33826707 487.89004372 570.56974429 482.96837627 574.671875 477.85546875 C576.81402 475.22810634 579.01110745 472.66624991 581.23828125 470.11157227 C587.97778421 462.36963355 594.24413934 454.32345987 600.40625 446.1171875 C601.93874673 444.08137076 603.48307887 442.05516122 605.03125 440.03125 C612.72462248 429.93582866 619.95182948 419.5544309 627 409 C627.5377002 408.19546387 628.07540039 407.39092773 628.62939453 406.56201172 C641.02096378 387.94299919 652.40950779 368.69763784 663 349 C663.51643066 348.0409375 664.03286133 347.081875 664.56494141 346.09375 C698.16172546 283.35099601 737 198.33750923 737 126 C692.17497661 125.77090871 647.35001541 125.59480081 602.52452159 125.48934671 C597.22760979 125.47684025 591.93069914 125.46389696 586.63378906 125.45068359 C585.05206807 125.44674894 585.05206807 125.44674894 583.43839312 125.44273479 C566.38385918 125.39926956 549.32966372 125.32045062 532.27533031 125.22847204 C514.76460201 125.1348225 497.25405048 125.07938394 479.74308205 125.05911505 C468.94526333 125.04542132 458.14840145 125.0022371 447.3508774 124.92083533 C439.93778492 124.86780919 432.52518413 124.85203617 425.11191595 124.86498623 C420.84001628 124.87136626 416.56978353 124.86187264 412.29818344 124.80794525 C387.84054242 124.3030018 387.84054242 124.3030018 367 136 Z M746 190 C745.81526123 190.72550049 745.63052246 191.45100098 745.44018555 192.19848633 C727.57981296 261.85448213 700.9030488 328.20037173 664 390 C663.29109619 391.19568604 663.29109619 391.19568604 662.56787109 392.41552734 C651.63008396 410.83685339 639.72989621 428.76690925 627 446 C626.53674316 446.62777344 626.07348633 447.25554687 625.59619141 447.90234375 C615.98082094 460.89591649 606.11279601 473.64043473 595.60546875 485.92578125 C593.24135813 488.69699155 590.96156042 491.52927189 588.6875 494.375 C584.402493 499.64826087 579.80695987 504.59381939 575.13549805 509.52294922 C572.28843053 512.52934168 569.49897919 515.56099531 566.80297852 518.70410156 C562.94954271 523.11914771 558.87095583 527.27341927 554.72265625 531.41015625 C553.95247665 532.18129257 553.18229706 532.95242889 552.38877869 533.74693298 C550.77058627 535.36580153 549.15114788 536.98342551 547.53051758 538.59985352 C545.06932768 541.05568718 542.61352191 543.51681365 540.15820312 545.97851562 C538.57584133 547.56021653 536.99316933 549.14160717 535.41015625 550.72265625 C534.68594986 551.44888687 533.96174347 552.17511749 533.21559143 552.9233551 C529.17782402 556.9428762 525.04779741 560.79499006 520.72784424 564.51026917 C518.33042039 566.57730515 516.0125103 568.72716778 513.6875 570.875 C509.22611655 574.94417391 504.64055282 578.79977816 499.94140625 582.58984375 C497.22330493 584.81702637 494.55936873 587.09227721 491.9050293 589.39428711 C485.41383525 595.02188793 478.77973972 600.40225352 471.90966797 605.56298828 C469.7479864 607.18963846 467.59489967 608.82737024 465.44140625 610.46484375 C448.16984772 623.55730196 430.45135902 635.85678064 412.22802734 647.57958984 C411.15762207 648.27133301 410.0872168 648.96307617 408.984375 649.67578125 C408.02241211 650.29364502 407.06044922 650.91150879 406.06933594 651.5480957 C405.38645508 652.02722412 404.70357422 652.50635254 404 653 C404 653.33 404 653.66 404 654 C517.19 654 630.38 654 747 654 C747 500.88 747 347.76 747 190 C746.67 190 746.34 190 746 190 Z M24 676 C20.20996263 683.58007474 21.86623207 695.35050979 21.90234375 703.640625 C21.9037587 704.88882019 21.90517365 706.13701538 21.90663147 707.42303467 C21.91217828 711.36538201 21.92472058 715.30767016 21.9375 719.25 C21.94309341 721.9414048 21.94715242 724.63281119 21.95117188 727.32421875 C21.96213023 733.88283231 21.97881444 740.44141192 22 747 C107.20636332 748.12952011 188.66014407 731.70132824 303 684 C303.886875 683.59040039 304.77375 683.18080078 305.6875 682.75878906 C309.80099027 680.85860706 313.90698175 678.94400694 318 677 C318 676.67 318 676.34 318 676 C220.98 676 123.96 676 24 676 Z " fill="#D7B35A" transform="translate(151,243)"/>
<path d="M0 0 C17.82 0 35.64 0 54 0 C56.08634766 5.98640625 56.08634766 5.98640625 58.21484375 12.09375 C66.94860156 37.14231203 75.68369601 62.189889 84.5625 87.1875 C90.92718185 105.10685531 97.22677965 123.04847078 103.5 141 C110.12842245 159.96764949 116.79101676 178.92258539 123.51443481 197.85681152 C127.82699659 210.00450107 132.11452819 222.16070904 136.37109375 234.328125 C136.60187748 234.9877977 136.83266121 235.6474704 137.07043839 236.32713318 C139.55617522 243.43329113 142.03904852 250.54044372 144.51953125 257.6484375 C150.2730836 274.12563861 156.10754826 290.57204139 162 307 C176.17917782 265.50643535 190.31647643 223.99899995 204.36694336 182.46166992 C210.73045429 163.64939246 217.10779681 144.84191545 223.50692749 126.04171753 C229.05113753 109.75170056 234.5715065 93.453702 240.08430958 77.15303802 C244.38588078 64.43411995 248.69143983 51.71655219 253 39 C253.37715149 37.88681396 253.75430298 36.77362793 254.1428833 35.62670898 C256.08362458 29.90030399 258.02747608 24.17497835 259.97766113 18.45178223 C260.52889272 16.83290718 261.07912444 15.21369128 261.6282959 13.59411621 C262.36006899 11.43677546 263.09545764 9.28070553 263.83203125 7.125 C264.43108276 5.36542969 264.43108276 5.36542969 265.04223633 3.5703125 C266 1 266 1 267 0 C269.8116338 -0.08861992 272.59858255 -0.11522355 275.41015625 -0.09765625 C276.25219101 -0.0962413 277.09422577 -0.09482635 277.96177673 -0.09336853 C280.66205335 -0.08775263 283.36224828 -0.07519748 286.0625 -0.0625 C287.88867068 -0.05748705 289.71484266 -0.05292379 291.54101562 -0.04882812 C296.02737684 -0.03862721 300.51367011 -0.01930701 305 0 C307.43118248 13.07873534 309.35982185 26.19931773 311.16357422 39.37768555 C311.46776695 41.58236436 311.77224421 43.78700393 312.07698059 45.99160767 C312.90076176 51.95707409 313.72059916 57.92307651 314.5397315 63.88918281 C315.41345911 70.24763989 316.29094229 76.60557873 317.16799927 82.96357727 C318.65116414 93.71900698 320.13212159 104.47473814 321.61132812 115.23071289 C323.10120567 126.06423016 324.59219312 136.89759348 326.08496094 147.73071289 C326.17550616 148.38781069 326.26605138 149.04490848 326.3593404 149.72191833 C326.99732138 154.35172868 327.63537564 158.98152892 328.2734375 163.61132812 C330.43815516 179.31898065 332.60236638 195.02670193 334.76361084 210.73483276 C337.9933675 234.20621417 341.22829746 257.67682948 344.4899509 281.14380252 C344.96251788 284.54431885 345.43475495 287.94488082 345.90686989 291.34545994 C346.21087037 293.53497918 346.5148731 295.72449812 346.81887817 297.91401672 C346.96609491 298.97436396 347.11331165 300.0347112 347.2649895 301.12719017 C348.12168468 307.29567523 348.98086191 313.46380821 349.84193325 319.63168383 C350.36201736 323.36083714 350.87993654 327.09028873 351.39726019 330.81982589 C351.63501842 332.53031419 351.87373454 334.24066967 352.113482 335.95088029 C352.4375952 338.2634925 352.75840881 340.57653908 353.07839966 342.88972473 C353.25769075 344.17579022 353.43698185 345.46185572 353.62170601 346.78689289 C354 350 354 350 354 354 C336.18 354 318.36 354 300 354 C295.25484561 321.03846783 290.65203592 288.06228882 286.17898941 255.06294441 C285.1971302 247.81966671 284.21279844 240.57672665 283.22771083 233.33388751 C281.6267241 221.5626519 280.02665444 209.7912919 278.42773438 198.01977539 C278.28603018 196.97653352 278.28603018 196.97653352 278.14146326 195.91221606 C276.78735969 185.94277284 275.43437043 175.9731787 274.08182274 166.0035243 C273.98553413 165.29377974 273.88924551 164.58403517 273.79003906 163.8527832 C273.64578948 162.78951019 273.64578948 162.78951019 273.49862577 161.70475692 C271.89749573 149.90325471 270.29363431 138.10212568 268.68748367 126.30130571 C267.61517468 118.42188261 266.5461671 110.54201891 265.47946477 102.66183484 C264.82066906 97.80057781 264.15891868 92.93972652 263.49630165 88.07898903 C263.18907309 85.82076542 262.88308075 83.56237323 262.57838631 81.3038063 C262.16417862 78.23476132 261.74563763 75.1663385 261.32595825 72.09803772 C261.20524464 71.19567778 261.08453102 70.29331784 260.96015942 69.36361367 C260.44887458 65.05054078 260.44887458 65.05054078 259 61 C250.86949716 84.83149825 242.74639827 108.6647026 234.8125 132.5625 C230.01301002 147.01845912 225.13192041 161.44417703 220.19155884 175.85256958 C215.55583355 189.37815352 211.00675665 202.93093299 206.5 216.5 C201.47574535 231.62708021 196.38008999 246.72719761 191.20767212 261.80422974 C185.93383777 277.18394561 180.78509613 292.60386088 175.65896606 308.03335571 C170.5531493 323.39751165 165.34860213 338.71827963 160 354 C147.79 354 135.58 354 123 354 C113.58899677 327.52687287 104.24832316 301.03032795 95 274.5 C88.54526335 255.98377778 82.06461493 237.47764016 75.5 219 C69.00239377 200.70836359 62.58048375 182.39089464 56.1875 164.0625 C55.71864179 162.71841302 55.2497799 161.37432733 54.78091431 160.03024292 C54.54881413 159.3648799 54.31671396 158.69951689 54.07758045 158.01399136 C52.90590747 154.65515375 51.73422012 151.29632116 50.5625 147.9375 C50.21438798 146.93957019 50.21438798 146.93957019 49.85924339 145.92148018 C36.01690813 106.24186805 22.05818074 66.60363082 8 27 C4.86672435 49.72436678 2.11181911 72.48532194 -0.54729199 95.26938152 C-0.88381052 98.15137593 -1.2210459 101.03328558 -1.55851555 103.91516876 C-2.74449965 114.04309618 -3.92804265 124.17130518 -5.10913086 134.29980469 C-6.1964971 143.62403916 -7.28923488 152.94763338 -8.38450485 162.27094245 C-9.3367226 170.37861294 -10.28512055 178.48672472 -11.2307238 186.59516931 C-11.79026362 191.39266477 -12.35115476 196.18999073 -12.9159565 200.98686981 C-15.05354991 219.15367423 -17.12658375 237.31757675 -18.73413086 255.54003906 C-18.79371888 256.21126533 -18.85330691 256.8824916 -18.91470063 257.57405806 C-20.12634928 271.35549358 -21.16555405 285.17856939 -21.1328125 299.01953125 C-21.13376923 299.96906174 -21.13472595 300.91859222 -21.13571167 301.89689636 C-21.13638258 303.87698433 -21.13460587 305.85707465 -21.13037109 307.8371582 C-21.12502547 310.79839235 -21.13034472 313.75947362 -21.13671875 316.72070312 C-21.14059721 329.18334467 -20.71621973 341.55710332 -20 354 C-32.87 354 -45.74 354 -59 354 C-55.65017468 341.71730715 -55.65017468 341.71730715 -53.6171875 335.75390625 C-53.1712385 334.42822036 -52.72629608 333.10219555 -52.28222656 331.77587891 C-52.05281372 331.09116516 -51.82340088 330.40645142 -51.58703613 329.70098877 C-39.23236029 292.59565897 -31.06269038 254.40247793 -26.12817383 215.6328125 C-25.86833445 213.61495404 -25.60836921 211.59711179 -25.34828663 209.57928467 C-22.76600196 189.46029788 -20.35687968 169.32094641 -17.9821279 149.17658615 C-17.38688121 144.13317396 -16.78820851 139.09016833 -16.18989563 134.04711914 C-15.06657603 124.57518344 -13.94570025 115.10296063 -12.82601053 105.63059521 C-10.80991878 88.57497449 -8.7908542 71.5197061 -6.7687915 54.46479225 C-6.06177506 48.50052025 -5.35631072 42.53606738 -4.65213144 36.57145977 C-4.21700973 32.88801008 -3.78073917 29.20469709 -3.34417915 25.52141762 C-3.14251961 23.81787292 -2.94135187 22.11426992 -2.74071503 20.41060448 C-2.46681349 18.08534682 -2.19115954 15.76030323 -1.91508484 13.43530273 C-1.76156398 12.13632553 -1.60804312 10.83734833 -1.44987011 9.49900818 C-1.0414192 6.32215106 -0.52657109 3.15942656 0 0 Z " fill="#93A981" transform="translate(1755,237)"/>
<path d="M0 0 C17.82 0 35.64 0 54 0 C54 48.84 54 97.68 54 148 C110.43 148 166.86 148 225 148 C225 99.16 225 50.32 225 0 C242.82 0 260.64 0 279 0 C279 116.82 279 233.64 279 354 C261.18 354 243.36 354 225 354 C225 289.65 225 225.3 225 159 C168.57 159 112.14 159 54 159 C54 223.35 54 287.7 54 354 C36.18 354 18.36 354 0 354 C0 237.18 0 120.36 0 0 Z " fill="#93A981" transform="translate(3736,237)"/>
<path d="M0 0 C174.45222738 0 174.45222738 0 190.375 5.75 C191.10992676 6.00676514 191.84485352 6.26353027 192.60205078 6.52807617 C215.00490847 14.64063355 232.04135507 29.43326582 242.796875 50.5234375 C253.67996827 74.49856871 252.78838495 102.15988359 243.6730957 126.5769043 C234.45326827 149.8579494 216.86787965 169.40217035 194 180 C187.75786365 182.58388551 181.39210035 184.81932611 175 187 C175.64066406 187.3403125 176.28132813 187.680625 176.94140625 188.03125 C178.23884766 188.75828125 178.23884766 188.75828125 179.5625 189.5 C180.40941406 189.9640625 181.25632812 190.428125 182.12890625 190.90625 C189.48998603 196.27432995 193.71639268 203.5218038 197.72265625 211.54296875 C198.48909203 213.04491035 198.48909203 213.04491035 199.27101135 214.57719421 C200.86290839 217.71058364 202.434993 220.8531025 204 224 C204.48635925 224.97696838 204.97271851 225.95393677 205.47381592 226.96051025 C208.34136194 232.73911829 211.17468119 238.53394342 213.99255371 244.33691406 C216.48200868 249.46346254 218.98154786 254.58509197 221.48046875 259.70703125 C221.96484406 260.70038483 222.44921936 261.6937384 222.94827271 262.7171936 C226.66690038 270.33637352 230.43732965 277.92746472 234.25 285.5 C238.47804626 293.90143696 242.58143039 302.35252369 246.60375977 310.85424805 C249.41427113 316.76527259 252.30266577 322.63285629 255.2421875 328.48046875 C255.60912216 329.21080322 255.97605682 329.9411377 256.35411072 330.69360352 C258.18655016 334.33753852 260.02494162 337.97834492 261.87036133 341.61572266 C262.54256457 342.94819977 263.21468757 344.28071736 263.88671875 345.61328125 C264.20176361 346.22987106 264.51680847 346.84646088 264.84140015 347.48173523 C267 351.77367189 267 351.77367189 267 354 C249.18 354 231.36 354 213 354 C202.67596014 335.64615136 202.67596014 335.64615136 198.00390625 326.16796875 C197.48545639 325.12586746 196.96700653 324.08376617 196.43284607 323.01008606 C194.80546383 319.73782613 193.18353803 316.46290673 191.5625 313.1875 C189.42082616 308.86706565 187.27641982 304.54800342 185.12890625 300.23046875 C184.34472824 298.65372879 184.34472824 298.65372879 183.54470825 297.0451355 C179.98628186 289.91455061 176.32247934 282.84753845 172.58522034 275.80937195 C168.48714486 268.075876 164.58435279 260.24899824 160.69537354 252.40878296 C152.79247636 236.48374908 144.84378687 220.59757695 136.14404297 205.08911133 C135.37434779 203.68358814 134.64875346 202.25310311 133.96679688 200.80297852 C132.6915183 198.4247128 131.47090661 198.00798717 129 197 C127.89785156 196.47019531 127.89785156 196.47019531 126.7734375 195.9296875 C115.66693197 191.04571927 106.16984952 192.71177875 95 197 C80.46493171 203.15820408 66.19786358 211.80213642 55 223 C54.68524516 225.39133143 54.68524516 225.39133143 54.7215271 228.21377563 C54.71036362 229.31877914 54.69920013 230.42378265 54.68769836 231.56227112 C54.68553818 232.78002731 54.68337799 233.99778351 54.68115234 235.25244141 C54.66608391 237.1694561 54.66608391 237.1694561 54.65071106 239.12519836 C54.62334571 242.63528573 54.60824243 246.14533283 54.59528303 249.65549898 C54.57968095 253.32176124 54.55288149 256.98794089 54.5272522 260.65414429 C54.48041247 267.59911788 54.44369359 274.54410692 54.41057932 281.48915803 C54.37239453 289.39478812 54.3229749 297.30033535 54.27259517 305.20589566 C54.16919808 321.47054336 54.08144637 337.73522532 54 354 C36.18 354 18.36 354 0 354 C0 237.18 0 120.36 0 0 Z M54 10 C54 76 54 142 54 210 C56.82046878 208.58976561 59.12180728 207.30832811 61.66015625 205.53125 C85.22925912 189.27081576 107.19548824 178.88009113 136.19140625 178.52148438 C153.47174589 178.1022572 167.43014788 172.57872528 179.4609375 160.17553711 C195.76399763 142.51638604 202.48044588 117.69954112 202.1484375 94.02734375 C201.0776197 72.18829642 194.64436633 52.55577961 180 36 C179.48179687 35.38769531 178.96359375 34.77539062 178.4296875 34.14453125 C170.20771448 25.1168875 158.38624938 18.96793539 147 15 C146.16726562 14.70480469 145.33453125 14.40960938 144.4765625 14.10546875 C117.42332587 5.65653485 78.20142948 10 54 10 Z " fill="#93A981" transform="translate(2943,237)"/>
<path d="M0 0 C85.47 0 170.94 0 259 0 C259 12.87 259 25.74 259 39 C247.86430678 35.65929204 247.86430678 35.65929204 243.03125 33.94921875 C189.80136821 15.4367815 133.63483989 12.26136194 77.70874023 11.34130859 C76.34307922 11.31701027 76.34307922 11.31701027 74.9498291 11.29222107 C73.25327664 11.26259197 71.5566574 11.23646447 69.85998535 11.21473694 C64.46767022 11.11985285 59.41031642 10.60114627 54 10 C54 55.87 54 101.74 54 149 C113.07 149 172.14 149 233 149 C233 152.63 233 156.26 233 160 C173.93 160 114.86 160 54 160 C54 220.39 54 280.78 54 343 C159.86359484 340.99502776 159.86359484 340.99502776 261.4921875 315.28515625 C265 314 265 314 267 314 C267 327.2 267 340.4 267 354 C178.89 354 90.78 354 0 354 C0 237.18 0 120.36 0 0 Z " fill="#93A981" transform="translate(2583,237)"/>
<path d="M0 0 C85.14 0 170.28 0 258 0 C258 12.87 258 25.74 258 39 C246.86430678 35.65929204 246.86430678 35.65929204 242.03125 33.94921875 C188.74950619 15.42016387 132.68302288 12.26216855 76.70849609 11.34130859 C75.79809067 11.32510971 74.88768524 11.30891083 73.94969177 11.29222107 C72.25319019 11.26259132 70.55662181 11.23646396 68.86000061 11.21473694 C63.46768037 11.11985338 58.41032136 10.60114682 53 10 C53 55.87 53 101.74 53 149 C112.07 149 171.14 149 232 149 C232 152.63 232 156.26 232 160 C172.93 160 113.86 160 53 160 C53 220.39 53 280.78 53 343 C129.4303095 340.75204972 194.58476242 338.37526073 266 314 C266 327.2 266 340.4 266 354 C178.22 354 90.44 354 0 354 C0 237.18 0 120.36 0 0 Z " fill="#93A981" transform="translate(2224,237)"/>
<path d="M0 0 C1.40897804 0.00333092 1.40897804 0.00333092 2.84642029 0.00672913 C3.90744461 0.00680466 4.96846893 0.00688019 6.06164551 0.00695801 C7.21579453 0.01211929 8.36994354 0.01728058 9.55906677 0.02259827 C10.73404221 0.02401321 11.90901764 0.02542816 13.11959839 0.02688599 C16.88981116 0.0325046 20.65996556 0.04506026 24.43016052 0.05775452 C26.97898779 0.06276712 29.52781599 0.06733044 32.0766449 0.07142639 C38.34033685 0.08248007 44.60399452 0.0992363 50.86766052 0.12025452 C58.44860243 18.12032572 65.73876336 36.23251042 72.95359802 54.38197327 C73.40628304 55.52061954 73.85896805 56.65926582 74.32537079 57.83241653 C78.11123359 67.35735803 81.89207644 76.88429066 85.6726532 86.41133118 C88.95143788 94.67331864 92.23212959 102.93454476 95.51609802 111.19447327 C96.20237746 112.92074196 96.20237746 112.92074196 96.90252113 114.68188477 C102.1671847 127.91742063 107.47388431 141.13210697 112.93406677 154.28822327 C121.87714928 175.83660636 130.42593889 197.54357561 139.03355026 219.22754288 C143.30502613 229.98632134 147.58159575 240.74307542 151.85984802 251.49916077 C152.5652387 253.27280534 152.5652387 253.27280534 153.28487968 255.08228111 C159.52410256 270.76654482 165.7980399 286.43621246 172.12547302 302.08509827 C172.47391455 302.94728973 172.82235607 303.8094812 173.18135643 304.69779968 C176.39474112 312.64865299 179.61222518 320.59779234 182.84537888 328.54062939 C183.9829852 331.33786389 185.11667917 334.13667227 186.24944687 336.93586922 C187.01052485 338.81226712 187.7772094 340.68638793 188.54408264 342.5604248 C188.98755035 343.65726089 189.43101807 344.75409698 189.88792419 345.88417053 C190.27340927 346.83083084 190.65889435 347.77749115 191.05606079 348.75283813 C191.86766052 351.12025452 191.86766052 351.12025452 191.86766052 354.12025452 C181.30766052 354.12025452 170.74766052 354.12025452 159.86766052 354.12025452 C159.23859802 350.40002014 158.60953552 346.67978577 157.96141052 342.84681702 C149.38024962 292.47226497 137.95217513 247.83154104 118.86766052 200.12025452 C70.68766052 200.12025452 22.50766052 200.12025452 -27.13233948 200.12025452 C-40.4733337 233.63607933 -40.4733337 233.63607933 -53.81349182 267.15223694 C-57.87768542 277.3626488 -61.94408382 287.57218007 -66.01254463 297.78089237 C-68.29795639 303.51558769 -70.5824954 309.25062699 -72.86488342 314.98652649 C-75.00431872 320.36303921 -77.14618849 325.73857538 -79.28998184 331.11335182 C-80.08078287 333.09723204 -80.87068902 335.08146921 -81.65966415 337.06607628 C-82.73492368 339.77039603 -83.81333621 342.47343641 -84.89259338 345.17616272 C-85.2092609 345.97477785 -85.52592842 346.77339298 -85.85219193 347.59620857 C-88.01820953 353.00612457 -88.01820953 353.00612457 -89.13233948 354.12025452 C-90.82035933 354.21378615 -92.51229155 354.23770242 -94.20289612 354.23377991 C-95.28394119 354.23370438 -96.36498627 354.23362885 -97.47879028 354.23355103 C-99.24282448 354.2258091 -99.24282448 354.2258091 -101.04249573 354.21791077 C-102.23966721 354.21649582 -103.43683868 354.21508087 -104.67028809 354.21362305 C-108.51183014 354.20800431 -112.3533149 354.19544862 -116.19483948 354.18275452 C-118.79184385 354.17774193 -121.38884913 354.17317861 -123.9858551 354.16908264 C-130.3680369 354.15802879 -136.75018229 354.14087643 -143.13233948 354.12025452 C-141.18964611 347.2398168 -138.86938765 340.62435062 -136.17774963 334.00379944 C-135.59858543 332.56386124 -135.59858543 332.56386124 -135.00772095 331.09483337 C-133.7330295 327.92846782 -132.4521766 324.76463252 -131.17140198 321.60072327 C-130.26149832 319.34319043 -129.35203295 317.08548089 -128.44297791 314.8276062 C-126.03818089 308.85746253 -123.62838644 302.88934966 -121.21723938 296.92176819 C-116.96707484 286.40039426 -112.72539438 275.87559549 -108.48390198 265.35072327 C-108.0129114 264.18235554 -107.54192081 263.01398781 -107.05665779 261.810215 C-97.95894431 239.23679736 -88.9843003 216.61570287 -80.03561687 193.9828825 C-75.23710031 181.85007599 -70.41469991 169.72679251 -65.58937073 157.60462952 C-65.15483393 156.51291632 -64.72029713 155.42120312 -64.27259254 154.2964077 C-61.61800353 147.6274856 -58.96263031 140.95887603 -56.30688858 134.2904129 C-54.91832339 130.80367158 -53.52993574 127.31685959 -52.1415863 123.83003235 C-37.53081833 87.13616219 -22.91655572 50.44343806 -8.19999695 13.79182434 C-7.46004641 11.94026653 -6.72613998 10.0862862 -5.99705505 8.23042297 C-5.45868515 6.86418793 -5.45868515 6.86418793 -4.90943909 5.47035217 C-4.59099533 4.65668182 -4.27255157 3.84301147 -3.94445801 3.00468445 C-2.71555164 0.1531451 -2.71555164 0.1531451 0 0 Z M44.86766052 16.12025452 C44.26849571 17.63867699 44.26849571 17.63867699 43.65722656 19.18777466 C31.57331895 49.8052995 19.41442445 80.39271524 7.23350525 110.97175598 C5.30979047 115.80142926 3.38659618 120.63130973 1.4634161 125.46119595 C-0.87168099 131.32549577 -3.20707747 137.18967634 -5.54249573 143.05384827 C-5.97155779 144.13128233 -6.40061985 145.20871639 -6.84268379 146.31879997 C-7.67558976 148.41023417 -8.50857694 150.50163602 -9.34165096 152.59300327 C-10.13346152 154.58078693 -10.92509604 156.56864073 -11.71653843 158.55657101 C-13.63879413 163.38248522 -15.56711286 168.20584708 -17.50608826 173.02507019 C-17.88127563 173.95871682 -18.25646299 174.89236345 -18.64301968 175.85430241 C-19.35265589 177.61919557 -20.06371091 179.38351912 -20.77639103 181.14718533 C-22.40190245 184.53729126 -22.40190245 184.53729126 -23.13233948 188.12025452 C22.07766052 188.12025452 67.28766052 188.12025452 113.86766052 188.12025452 C113.10710279 184.31746587 112.30546649 181.40014024 110.89451599 177.86561584 C110.47846603 176.81728577 110.06241608 175.76895569 109.63375854 174.68885803 C109.17211807 173.53828918 108.7104776 172.38772034 108.23484802 171.20228577 C107.73711794 169.95259982 107.23978014 168.70275757 106.74279785 167.45277405 C105.37044295 164.00427961 103.99280154 160.55791926 102.61410141 157.11195755 C101.14475734 153.43758433 99.6792928 149.76166468 98.21360779 146.08583069 C97.59400577 144.5320083 96.9743919 142.97819064 96.35476685 141.42437744 C95.88183984 140.23843019 95.88183984 140.23843019 95.39935875 139.0285244 C94.4086609 136.54489889 93.41729619 134.06154033 92.42584229 131.57821655 C87.19536595 118.47323346 81.99832874 105.35516619 76.80859375 92.23400307 C74.13765104 85.48346182 71.46264412 78.73453008 68.78750229 71.98565197 C66.57135843 66.39394494 64.35763484 60.80130338 62.14909363 55.20658875 C60.04870287 49.88626103 57.94178311 44.56856528 55.82996941 39.25276184 C55.04403788 37.27097813 54.26053978 35.28822753 53.47955513 33.30448914 C52.40814096 30.58402158 51.32833636 27.86703771 50.24632263 25.15077209 C49.93119658 24.34468411 49.61607052 23.53859613 49.29139519 22.70808125 C47.94743754 18.69735851 47.94743754 18.69735851 44.86766052 16.12025452 Z " fill="#93A981" transform="translate(3446.132339477539,236.87974548339844)"/>
<path d="M0 0 C17.82 0 35.64 0 54 0 C75.80857433 54.2206279 97.59737153 108.44872988 119.28587723 162.71751022 C129.74723994 188.89376517 140.2231018 215.06405952 150.73828125 241.21875 C151.22540462 242.43044357 151.712528 243.64213715 152.21441269 244.89054871 C156.93570709 256.63396992 161.65874306 268.37668825 166.38534737 280.11797333 C181.98956727 318.88240084 181.98956727 318.88240084 188.87041283 336.26583862 C189.43696223 337.69638917 190.00458436 339.12651541 190.57335854 340.55618286 C191.3351267 342.47229515 192.09191883 344.39038354 192.84838867 346.30859375 C193.26771164 347.36876709 193.68703461 348.42894043 194.11906433 349.52124023 C195 352 195 352 195 354 C184.44 354 173.88 354 163 354 C162.41992188 350.71546875 161.83984375 347.4309375 161.2421875 344.046875 C152.33148773 293.78185854 140.6727088 247.71914472 122 200 C73.82 200 25.64 200 -24 200 C-30.72375 216.726875 -37.4475 233.45375 -44.375 250.6875 C-46.45603027 255.86397217 -48.53706055 261.04044434 -50.68115234 266.3737793 C-52.39951107 270.64888684 -54.117793 274.92402512 -55.8359375 279.19921875 C-56.52011812 280.90147897 -56.52011812 280.90147897 -57.21812057 282.63812828 C-62.28736867 295.25162168 -67.35054033 307.86749581 -72.39550781 320.49072266 C-73.03171397 322.0824711 -73.03171397 322.0824711 -73.68077278 323.70637608 C-75.67636932 328.70004625 -77.67069865 333.69421775 -79.66317749 338.68913269 C-80.36219198 340.43965079 -81.0612168 342.19016476 -81.76025391 343.94067383 C-82.23525518 345.13324138 -82.23525518 345.13324138 -82.71985245 346.3499012 C-84.88692699 351.77385399 -84.88692699 351.77385399 -86 354 C-103.82 354 -121.64 354 -140 354 C-139.29189433 350.45947166 -138.64317875 347.79436844 -137.34150696 344.53414917 C-136.99855591 343.66912781 -136.65560486 342.80410645 -136.30226135 341.91287231 C-135.9257695 340.97595551 -135.54927765 340.0390387 -135.16137695 339.07373047 C-134.76431549 338.07583496 -134.36725403 337.07793945 -133.9581604 336.04980469 C-132.63893066 332.73729618 -131.31362582 329.42725367 -129.98828125 326.1171875 C-129.05881077 323.78694074 -128.12971464 321.45654463 -127.20097351 319.12600708 C-124.9931869 313.58858482 -122.78157097 308.05270708 -120.56811541 302.51754963 C-117.86376334 295.75414596 -115.16535277 288.98837433 -112.46679688 282.22265625 C-105.16395777 263.91719612 -97.84891991 245.61661895 -90.52500916 227.31958008 C-89.98411508 225.96826396 -89.44322655 224.61694563 -88.90234375 223.265625 C-88.63585588 222.59985443 -88.36936802 221.93408386 -88.09480476 221.24813843 C-80.05025835 201.14709825 -72.05426683 181.02667558 -64.04937744 160.90982056 C-50.50682404 126.87682635 -36.95584048 92.84736875 -23.33690643 58.84486008 C-15.49101957 39.25563477 -7.70075955 19.64680963 0 0 Z M48 16 C47.76753571 16.58116074 47.53507141 17.16232147 47.29556274 17.76109314 C46.96035614 18.59910965 46.62514954 19.43712616 46.27978516 20.30053711 C45.69997894 21.75006775 45.69997894 21.75006775 45.10845947 23.22888184 C44.20056901 25.49858698 43.29264904 27.76828032 42.38470459 30.03796387 C39.96160183 36.09532621 37.53879478 42.15280636 35.1170063 48.21069431 C33.60423152 51.99470378 32.09122682 55.77862129 30.578125 59.5625 C30.2580032 60.36304747 29.93788139 61.16359493 29.60805893 61.98840141 C24.82435573 73.95013702 20.03286453 85.90873585 15.23701668 97.86560726 C11.39123648 107.45384657 7.54770718 117.04298632 3.7054882 126.63265324 C1.29567307 132.64678296 -1.11547684 138.66037099 -3.52947998 144.67282104 C-5.83298872 150.41012804 -8.1332855 156.14871239 -10.43120575 161.88825989 C-11.29078732 164.03352559 -12.15158044 166.17830626 -13.01361847 168.32258606 C-14.19795519 171.26905753 -15.37806845 174.21718551 -16.55712891 177.16577148 C-16.909065 178.03842116 -17.26100109 178.91107084 -17.62360191 179.81016445 C-17.93936998 180.60233396 -18.25513805 181.39450346 -18.58047485 182.2106781 C-18.85642801 182.89871741 -19.13238117 183.58675673 -19.41669655 184.29564571 C-20.1079348 186.01514022 -20.1079348 186.01514022 -20 188 C25.21 188 70.42 188 117 188 C115.17165106 181.90550354 113.38776705 176.10357164 111.0144043 170.25219727 C110.72994446 169.5406911 110.44548462 168.82918493 110.15240479 168.09611797 C109.21374677 165.75122529 108.26899343 163.4088404 107.32421875 161.06640625 C106.64721833 159.37847266 105.97061838 157.6903784 105.29438782 156.00213623 C103.47465285 151.46211893 101.64969537 146.92421855 99.8236084 142.38675308 C97.91939026 137.65305517 96.0193618 132.91767654 94.11914062 128.18237305 C91.77252112 122.33502976 89.42564655 116.4877904 87.07687378 110.64131165 C82.10148859 98.25426847 77.14824555 85.85861021 72.21445656 73.4549427 C70.13586286 68.23028002 68.05463593 63.00666544 65.97373867 57.78291988 C64.32440708 53.64168537 62.67693094 49.49973025 61.03329468 45.35623169 C59.49853114 41.48737606 57.95903867 37.62043697 56.41588402 33.75492096 C55.85283771 32.3419084 55.291611 30.92816924 54.7323246 29.51366425 C53.97340658 27.59483421 53.20823176 25.67862026 52.44140625 23.76293945 C52.01545166 22.69139114 51.58949707 21.61984283 51.15063477 20.51582336 C50.12996329 17.89733569 50.12996329 17.89733569 48 16 Z " fill="#93A981" transform="translate(1418,237)"/>
<path d="M0 0 C21 0 21 0 25.76171875 3.26171875 C27.31469727 5.38305664 27.31469727 5.38305664 28.6875 7.6875 C29.23398193 8.46407959 29.78046387 9.24065918 30.34350586 10.04077148 C31.43936776 11.60346381 32.50852027 13.18528582 33.54785156 14.78613281 C35.5595627 17.85307911 37.79150304 20.6820342 40.0625 23.5625 C40.84753906 24.59503906 41.63257812 25.62757813 42.44140625 26.69140625 C45.3807382 30.52617927 48.44098527 34.26051509 51.5 38 C55.40911197 42.77969281 59.25632222 47.58946161 63 52.5 C66.72660502 57.38626168 70.55030478 62.17815581 74.4375 66.9375 C80.84274865 74.77985966 87.10375587 82.72735928 93.33398438 90.70898438 C98.67691211 97.54949185 104.07175878 104.33983087 109.5625 111.0625 C114.28950353 116.85007575 118.87839256 122.71818409 123.41015625 128.66015625 C126.82156349 133.09458605 130.36893433 137.41924615 133.91992188 141.7421875 C139.38781846 148.41654901 144.66395685 155.20867235 150 162 C150.495 81.81 150.495 81.81 151 0 C159.58 0 168.16 0 177 0 C177 69.63 177 139.26 177 211 C155 211 155 211 147.25 203.3125 C145.30395508 200.75537109 145.30395508 200.75537109 143.95703125 198.5859375 C141.45774628 194.68817622 138.8071613 191.07148895 135.9375 187.4375 C134.75994141 185.88869141 134.75994141 185.88869141 133.55859375 184.30859375 C130.6192618 180.47382073 127.55901473 176.73948491 124.5 173 C119.75137031 167.19382425 115.14146517 161.30893484 110.59375 155.34375 C107.63788799 151.50112939 104.56887436 147.75252788 101.5 144 C97.57387237 139.19823246 93.69817104 134.37009043 89.9375 129.4375 C85.87657221 124.11492474 81.72364171 118.87524599 77.53100586 113.65600586 C74.16057615 109.45792147 70.81906085 105.23879339 67.5 101 C63.69571535 96.14304353 59.86009568 91.3127157 56 86.5 C51.68854524 81.12453584 47.41310595 75.72271687 43.16650391 70.29589844 C40.68949332 67.13517184 38.19519009 63.98958446 35.6796875 60.859375 C35.12861328 60.17359375 34.57753906 59.4878125 34.00976562 58.78125 C32.93980667 57.45179084 31.86825302 56.12361313 30.79492188 54.796875 C27.10879527 50.21759055 27.10879527 50.21759055 26 48 C25.67 101.79 25.34 155.58 25 211 C16.75 211 8.5 211 0 211 C0 141.37 0 71.74 0 0 Z " fill="#93A981" transform="translate(2368,795)"/>
<path d="M0 0 C107.4933857 0 107.4933857 0 122.5625 4.1875 C123.34568604 4.40108154 124.12887207 4.61466309 124.93579102 4.8347168 C142.46393303 9.83187583 156.8000446 18.38272514 170 31 C171.03060547 31.91845703 171.03060547 31.91845703 172.08203125 32.85546875 C182.93209149 42.89230948 190.23421749 57.01200058 194.6875 70.9375 C194.89020508 71.56962402 195.09291016 72.20174805 195.30175781 72.85302734 C198.59712235 83.69362138 199.40628042 94.26100044 199.375 105.5625 C199.37478851 106.26798981 199.37457703 106.97347961 199.37435913 107.7003479 C199.28903762 136.24666026 189.40406933 160.94611986 169.6875 181.75 C125.24813365 224.24708635 54.36106074 211 0 211 C0 141.37 0 71.74 0 0 Z M26 23 C26 77.78 26 132.56 26 189 C93.90916329 192.9929144 93.90916329 192.9929144 151.5703125 164.45751953 C167.83782597 147.87332291 174.26522126 126.10410902 174.3190918 103.41064453 C174.14278417 90.23193387 171.34093605 77.61883282 165 66 C164.37351562 64.77990234 164.37351562 64.77990234 163.734375 63.53515625 C153.11057975 44.21083903 134.32790631 32.17124451 113.62109375 25.82421875 C84.48770729 19.19299486 57.15941232 23 26 23 Z " fill="#93A981" transform="translate(3421,795)"/>
<path d="M0 0 C107.52123885 0 107.52123885 0 122.6875 4.25 C123.47511719 4.46543457 124.26273438 4.68086914 125.07421875 4.90283203 C151.47652112 12.3981285 173.45318012 29.41123555 187.07910156 53.234375 C200.58320757 77.6451586 203.3898669 109.02085329 196.2578125 135.87890625 C188.34366899 162.6753684 171.47913329 184.16112957 147.12353516 197.86572266 C102.94778342 221.46201405 45.87955974 211 0 211 C0 141.37 0 71.74 0 0 Z M26 23 C26 77.78 26 132.56 26 189 C89.68930335 192.97025932 89.68930335 192.97025932 147 168 C147.88300781 167.22140625 148.76601562 166.4428125 149.67578125 165.640625 C165.10706419 151.21248217 173.2708752 131.90188107 174.21875 110.81640625 C174.8807154 87.66767677 168.53996097 65.55640309 152.46801758 48.30200195 C137.29178861 32.81882077 117.96975356 26.22611593 97 23 C73.57 23 50.14 23 26 23 Z " fill="#93A981" transform="translate(1276,795)"/>
<path d="M0 0 C21.34947736 20.7445755 30.95180368 47.76346969 31.65625 77.02734375 C31.25093519 102.84083047 23.69752549 127.76305806 6.34375 147.27734375 C5.74304687 148.01984375 5.14234375 148.76234375 4.5234375 149.52734375 C-11.14316466 168.40592711 -34.88348572 179.22284776 -58.65625 183.27734375 C-59.66816406 183.46167969 -60.68007812 183.64601563 -61.72265625 183.8359375 C-93.36384716 187.38653787 -125.67594753 181.57260743 -150.9921875 161.4765625 C-151.87132813 160.75082031 -152.75046875 160.02507812 -153.65625 159.27734375 C-154.43226563 158.66503906 -155.20828125 158.05273438 -156.0078125 157.421875 C-177.1863941 139.8728383 -188.10892375 113.11465836 -190.65625 86.27734375 C-192.79473446 57.1505656 -184.25907767 29.13562782 -165.46484375 6.65625 C-163.25508357 4.1313588 -160.98784874 1.68990078 -158.65625 -0.72265625 C-158.016875 -1.3878125 -157.3775 -2.05296875 -156.71875 -2.73828125 C-114.38917449 -43.41435772 -41.43329487 -38.35202136 0 0 Z M-146.1953125 22.08984375 C-162.25746832 42.40212328 -166.83836591 64.76060124 -164.65625 90.27734375 C-162.38138291 106.94506365 -154.89587391 121.83653866 -143.65625 134.27734375 C-142.64304687 135.42976563 -142.64304687 135.42976563 -141.609375 136.60546875 C-128.43430462 150.7422231 -107.11499525 160.4665627 -87.65625 161.27734375 C-86.521875 161.32890625 -85.3875 161.38046875 -84.21875 161.43359375 C-60.44645763 162.15009231 -38.71611154 155.03301606 -20.65625 139.27734375 C-20.05296875 138.76945313 -19.4496875 138.2615625 -18.828125 137.73828125 C-3.68701277 123.94147338 4.68171842 102.51775109 5.625 82.4140625 C6.24515187 59.82929812 0.45270953 37.93500093 -15.09375 20.96484375 C-16.92001773 19.03774858 -18.77965432 17.15667499 -20.65625 15.27734375 C-21.31367188 14.60832031 -21.97109375 13.93929687 -22.6484375 13.25 C-37.80851731 -1.09677081 -59.03802781 -7.1490178 -79.46875 -7.03515625 C-81.04523315 -7.02778442 -81.04523315 -7.02778442 -82.65356445 -7.02026367 C-107.1248613 -6.65237354 -129.79729504 3.92588595 -146.1953125 22.08984375 Z " fill="#93A981" transform="translate(3986.65625,823.72265625)"/>
<path d="M0 0 C48.18 0 96.36 0 146 0 C146 7.59 146 15.18 146 23 C106.4 23 66.8 23 26 23 C26 46.1 26 69.2 26 93 C61.31 93 96.62 93 133 93 C133 100.26 133 107.52 133 115 C97.69 115 62.38 115 26 115 C26 139.42 26 163.84 26 189 C67.25 189 108.5 189 151 189 C151 196.26 151 203.52 151 211 C101.17 211 51.34 211 0 211 C0 141.37 0 71.74 0 0 Z " fill="#93A981" transform="translate(1550,795)"/>
<path d="M0 0 C2.19463443 2.25121801 4.15708562 4.72077109 6.12109375 7.17578125 C0.84109375 12.45578125 -4.43890625 17.73578125 -9.87890625 23.17578125 C-18.12749382 16.98934057 -18.12749382 16.98934057 -22.06640625 13.67578125 C-40.39627452 -0.54242136 -64.88935991 -2.55372182 -87.21533203 -0.62207031 C-108.68359474 2.09802991 -129.4364341 13.94901274 -142.6796875 30.97265625 C-156.46557223 51.05156473 -162.11198872 74.26835614 -157.69140625 98.42578125 C-154.08976242 116.33565453 -145.61155847 130.42409666 -132.87890625 143.17578125 C-132.29496094 143.77132812 -131.71101563 144.366875 -131.109375 144.98046875 C-114.63044526 160.41642826 -90.61601759 165.91485306 -68.67578125 165.39453125 C-50.93968721 164.37269867 -37.61698905 159.65013353 -21.87890625 151.17578125 C-21.54890625 127.74578125 -21.21890625 104.31578125 -20.87890625 80.17578125 C-12.62890625 80.17578125 -4.37890625 80.17578125 4.12109375 80.17578125 C4.43821444 90.82476363 4.69467049 101.47058083 4.84646416 112.12322807 C4.91934407 117.07059855 5.01805065 122.01455558 5.17724609 126.95996094 C5.33011001 131.73894466 5.41321325 136.51466159 5.44937515 141.29590225 C5.47511783 143.11353125 5.52539926 144.93099368 5.60131454 146.74721909 C6.1565578 160.58990999 6.1565578 160.58990999 2.74668312 164.92184448 C-1.03654908 168.44198563 -5.3078555 170.82110205 -9.87890625 173.17578125 C-11.25605674 174.01292884 -12.63257592 174.85111826 -14.0078125 175.69140625 C-32.69041955 185.12835452 -52.71561264 189.58995722 -73.62890625 189.48828125 C-74.85464355 189.4826416 -76.08038086 189.47700195 -77.34326172 189.47119141 C-107.91573938 189.06366597 -135.99959546 177.81218893 -157.58398438 155.8840332 C-180.21019292 132.01696045 -185.87113567 102.60909409 -185.05810547 70.74316406 C-183.93455963 48.37633599 -174.13674032 28.12031639 -159.87890625 11.17578125 C-159.11578125 10.16515625 -158.35265625 9.15453125 -157.56640625 8.11328125 C-137.58864993 -13.72287101 -108.5651289 -24.11548633 -79.62255859 -25.7265625 C-50.49407512 -26.76334782 -21.84505196 -20.15049481 0 0 Z " fill="#93A981" transform="translate(2275.87890625,818.82421875)"/>
<path d="M0 0 C8.58 0 17.16 0 26 0 C26.01458252 3.97546875 26.02916504 7.9509375 26.04418945 12.046875 C26.09467371 25.22642771 26.16114584 38.40585992 26.23571491 51.58529663 C26.28051128 59.57084831 26.31996227 67.556357 26.34643555 75.54199219 C26.3695475 82.50946669 26.40309012 89.47680328 26.44870156 96.44416809 C26.47245767 100.12682069 26.49130083 103.8093382 26.49761391 107.49206543 C26.46934286 141.19507895 26.46934286 141.19507895 41 171 C41.45375 171.60328125 41.9075 172.2065625 42.375 172.828125 C51.52760171 183.41082072 66.59577881 187.64227352 80 189 C98.25864638 190.32172208 114.80101332 186.78607075 129.72265625 176.0390625 C141.55572149 165.44410528 146.64881507 148.3267124 148 133 C148.16308335 128.62801284 148.1845973 124.25752135 148.20532227 119.8828125 C148.21522186 118.5844194 148.22512146 117.28602631 148.23532104 115.94828796 C148.2621957 112.40963758 148.28329887 108.87097409 148.30332303 105.33227921 C148.32529106 101.62603663 148.35262649 97.91983362 148.37937927 94.21362305 C148.42916067 87.20509126 148.47415307 80.19653734 148.51740164 73.18796253 C148.56689893 65.20483144 148.62177046 57.22174007 148.67708123 49.23864746 C148.79067768 32.82580037 148.89685546 16.4129166 149 0 C157.25 0 165.5 0 174 0 C174.0679658 17.56898574 174.1231257 35.13785764 174.15543652 52.70693874 C174.17084398 60.86627885 174.19181496 69.0255309 174.22631836 77.18481445 C174.25640973 84.30420388 174.27561936 91.42352947 174.28226548 98.54298073 C174.28614467 102.30565018 174.29513009 106.06813718 174.31719017 109.8307476 C174.4885016 140.26617921 172.31292671 168.93070289 150 192 C128.35924829 211.06725691 101.82534118 214.59362947 74 213 C55.84279719 211.21240932 39.8603477 204.88919046 26 193 C25.26265625 192.37480469 24.5253125 191.74960937 23.765625 191.10546875 C7.86677238 176.46989705 1.63503888 153.82350412 0 133 C-0.13516675 128.58927386 -0.12662228 124.18178488 -0.11352539 119.76928711 C-0.11367142 118.47074799 -0.11381744 117.17220886 -0.1139679 115.83432007 C-0.11425297 112.29982767 -0.10840333 108.76536971 -0.10139394 105.23088527 C-0.09511192 101.52734349 -0.09455278 97.8238008 -0.09336853 94.12025452 C-0.09026945 87.11880995 -0.08207535 80.11738114 -0.07201904 73.11594349 C-0.06081357 65.14007251 -0.05533631 57.16420075 -0.05032361 49.18832386 C-0.03989145 32.79220525 -0.02156379 16.39610832 0 0 Z " fill="#93A981" transform="translate(3155,795)"/>
<path d="M0 0 C-0.59355371 5.30018387 -2.37372632 9.58136893 -4.5625 14.375 C-4.89185547 15.11105469 -5.22121094 15.84710937 -5.56054688 16.60546875 C-6.36747805 18.40644557 -7.1828826 20.20362181 -8 22 C-11.50907472 20.713779 -14.67107572 19.09222618 -17.90917969 17.23291016 C-26.59942165 12.29768256 -35.32981625 9.3850229 -45 7 C-45.90621094 6.75378906 -46.81242187 6.50757813 -47.74609375 6.25390625 C-66.11825136 1.99156568 -87.4054261 4.12293304 -103.9609375 13.0546875 C-111.40540283 17.81991081 -115.98078158 24.37674958 -118 33 C-119.09903819 42.02040776 -118.43679424 49.53475714 -113 57 C-101.45459503 70.27428541 -79.66995356 73.37613756 -63.47842407 77.48223877 C-10.43698444 90.93830086 -10.43698444 90.93830086 2.4375 110.9375 C7.26447951 119.10734294 8.49266157 127.66551583 8.375 137 C8.38660156 137.92039062 8.39820313 138.84078125 8.41015625 139.7890625 C8.34944696 154.15692723 2.27254273 166.36509722 -7.51953125 176.71484375 C-28.64090928 196.17312114 -57.9728198 196.99046532 -85 196 C-108.71545815 194.40529658 -132.35352907 184.8488055 -150 169 C-149.38367054 164.04001528 -147.20164371 160.06328034 -144.9375 155.6875 C-144.56044922 154.94693359 -144.18339844 154.20636719 -143.79492188 153.44335938 C-142.86871843 151.62612478 -141.93509371 149.81267596 -141 148 C-137.66524422 148.62258316 -136.82880935 149.15258297 -134.125 151.5625 C-116.36899826 167.22074626 -90.10230755 173.92361141 -66.87109375 173.2734375 C-51.89176975 172.21536214 -35.2865714 170.1093881 -24.25 158.6875 C-18.94235117 151.1369415 -16.66291376 142.11649712 -18 133 C-20.87693046 123.23074417 -26.48824758 117.61832208 -35.25830078 112.81982422 C-39.12173589 110.85962348 -43.08715019 109.43919623 -47.19921875 108.09375 C-47.9773996 107.83698486 -48.75558044 107.58021973 -49.55734253 107.31567383 C-59.27989264 104.17543214 -69.19498048 101.80077607 -79.11914062 99.39550781 C-101.17071787 94.02530018 -125.18034878 87.6405621 -138.4609375 67.75 C-145.97989709 54.31510773 -146.50024219 39.18331762 -143.03125 24.48828125 C-138.45293289 9.00177679 -128.56502425 -1.3042897 -114.77880859 -9.05419922 C-80.7140839 -27.16657137 -31.4583593 -20.97223954 0 0 Z " fill="#93A981" transform="translate(1908,812)"/>
<path d="M0 0 C1.09375 2.1328125 1.09375 2.1328125 1 5 C-0.06541686 8.22568825 -1.47509002 11.24989927 -2.9375 14.3125 C-3.51661133 15.56643555 -3.51661133 15.56643555 -4.10742188 16.84570312 C-5.0596881 18.90306842 -6.0240557 20.95378811 -7 23 C-8.45833333 22.27083333 -9.91666667 21.54166667 -11.375 20.8125 C-12.75945313 20.12607422 -12.75945313 20.12607422 -14.171875 19.42578125 C-15.90365166 18.55271705 -17.62542082 17.65895677 -19.328125 16.73046875 C-40.07136522 5.61801863 -65.7980304 2.58124225 -88.6640625 7.95703125 C-97.69974727 10.78200529 -107.41455766 15.10227501 -112.49609375 23.4609375 C-117.07884867 32.31487193 -118.74936661 41.02294462 -115.8125 50.8125 C-112.550399 59.22213653 -106.81350637 63.05860925 -99 67 C-86.2003128 72.44649537 -72.96686683 75.77422413 -59.4987793 79.10180664 C-8.75242338 91.70635283 -8.75242338 91.70635283 4.8203125 113.67578125 C11.7377012 127.30441131 11.19257949 142.67535342 7 157 C1.06305531 172.64156583 -10.80229839 183.50385455 -25.875 190.3125 C-48.59201979 199.47901676 -77.34460333 200.03553331 -101 194 C-101.68771484 193.83371094 -102.37542969 193.66742187 -103.08398438 193.49609375 C-120.3371322 189.26507657 -137.46083927 181.84699287 -149 168 C-145.7 161.73 -142.4 155.46 -139 149 C-135.61594895 150.69202552 -133.19712001 152.3277108 -130.25 154.625 C-107.25543369 171.42872153 -78.72996268 176.93943828 -50.7421875 172.75 C-38.19023796 170.2343692 -27.43285873 165.59346363 -19.97265625 154.87109375 C-16.03442015 147.29512953 -15.46177123 138.28721425 -17.83984375 130.11328125 C-22.96622322 118.84215062 -32.54879781 114.00467862 -43.6484375 109.82324219 C-51.60881058 107.03645045 -59.83233654 105.07292376 -68 103 C-124.69926344 88.58763863 -124.69926344 88.58763863 -136.04882812 70.31103516 C-143.53000455 57.06282283 -145.42919234 42.03630489 -142.31640625 27.015625 C-137.72725182 11.0964005 -128.12732486 0.63681756 -114.14453125 -7.703125 C-82.42694736 -24.65341275 -29.26644626 -22.25018821 0 0 Z " fill="#93A981" transform="translate(2874,811)"/>
<path d="M0 0 C56.43 0 112.86 0 171 0 C171 7.59 171 15.18 171 23 C146.91 23 122.82 23 98 23 C98 85.04 98 147.08 98 211 C89.75 211 81.5 211 73 211 C73 148.96 73 86.92 73 23 C48.91 23 24.82 23 0 23 C0 15.41 0 7.82 0 0 Z " fill="#93A981" transform="translate(2925,795)"/>
<path d="M0 0 C8.58 0 17.16 0 26 0 C26 69.63 26 139.26 26 211 C17.42 211 8.84 211 0 211 C0 141.37 0 71.74 0 0 Z " fill="#93A981" transform="translate(3695,795)"/>
<path d="M0 0 C8.58 0 17.16 0 26 0 C26 69.63 26 139.26 26 211 C17.42 211 8.84 211 0 211 C0 141.37 0 71.74 0 0 Z " fill="#93A981" transform="translate(1990,795)"/>
</svg>
