<?xml version="1.0" encoding="UTF-8"?>
<svg id="Layer_2" data-name="Layer 2" xmlns="http://www.w3.org/2000/svg" xmlns:xlink="http://www.w3.org/1999/xlink" viewBox="0 0 1000 1000">
  <defs>
    <style>
      .cls-1 {
        fill: #93a880;
      }

      .cls-2 {
        fill: url(#linear-gradient);
      }
    </style>
    <linearGradient id="linear-gradient" x1="319.29" y1="668.93" x2="844.23" y2="139.91" gradientUnits="userSpaceOnUse">
      <stop offset=".18" stop-color="#b47f2b"/>
      <stop offset=".42" stop-color="#e1bf61"/>
      <stop offset=".56" stop-color="#f8df7c"/>
      <stop offset=".72" stop-color="#fff4a7"/>
      <stop offset=".91" stop-color="#f8df7c"/>
    </linearGradient>
  </defs>
  <rect class="cls-1" x="-44.6" y="-24.24" width="1082.13" height="1040.77"/>
  <path class="cls-2" d="M293.18,803.39c-2.8-1.47-6.06-2.21-9.77-2.21h-14.17v34.81h14.17c3.71,0,6.97-.74,9.77-2.21,2.8-1.48,4.98-3.52,6.54-6.14,1.56-2.62,2.34-5.64,2.34-9.05s-.78-6.43-2.34-9.05c-1.56-2.62-3.74-4.67-6.54-6.14ZM296.54,825.97c-1.26,2.14-3.03,3.81-5.3,5.02-2.27,1.21-4.95,1.81-8.03,1.81h-10.3v-28.45h10.3c3.08,0,5.76.61,8.03,1.81,2.27,1.21,4.04,2.88,5.3,5,1.26,2.12,1.89,4.59,1.89,7.41s-.63,5.25-1.89,7.39ZM318.97,832.81h20.94v3.18h-24.62v-34.81h23.87v3.18h-20.19v12.38h18v3.13h-18v12.93ZM374.94,822.37c.78,1.13,1.17,2.6,1.17,4.43,0,1.69-.46,3.26-1.39,4.7-.93,1.44-2.35,2.6-4.25,3.48-1.91.88-4.35,1.32-7.34,1.32-2.59,0-5.07-.42-7.44-1.27-2.37-.85-4.2-1.93-5.5-3.26l1.44-2.83c1.23,1.19,2.88,2.2,4.95,3.01,2.07.81,4.25,1.22,6.54,1.22s3.97-.27,5.35-.82c1.38-.55,2.39-1.28,3.03-2.21.65-.93.97-1.96.97-3.08,0-1.36-.39-2.45-1.17-3.28-.78-.83-1.8-1.48-3.06-1.96-1.26-.48-2.65-.9-4.18-1.27-1.53-.36-3.05-.75-4.57-1.17-1.53-.41-2.93-.97-4.2-1.67-1.28-.7-2.3-1.62-3.08-2.76-.78-1.14-1.17-2.64-1.17-4.5,0-1.72.46-3.31,1.37-4.75.91-1.44,2.31-2.6,4.2-3.48,1.89-.88,4.31-1.32,7.26-1.32,1.96,0,3.9.27,5.82.82,1.92.55,3.58,1.3,4.97,2.26l-1.24,2.93c-1.49-1-3.08-1.72-4.75-2.19-1.67-.46-3.29-.7-4.85-.7-2.09,0-3.81.28-5.17.85-1.36.56-2.36,1.32-3.01,2.26-.65.94-.97,2.01-.97,3.21,0,1.36.39,2.45,1.17,3.28.78.83,1.81,1.48,3.08,1.94,1.28.46,2.68.88,4.2,1.24,1.53.37,3.04.76,4.55,1.19,1.51.43,2.9.99,4.18,1.67,1.28.68,2.3,1.58,3.08,2.71ZM389.09,801.18h3.68v34.81h-3.68v-34.81ZM410.75,812.84c-.75,1.74-1.12,3.66-1.12,5.74s.37,3.96,1.12,5.72c.75,1.76,1.79,3.29,3.13,4.6,1.34,1.31,2.92,2.32,4.72,3.03,1.81.71,3.77,1.07,5.89,1.07,1.99,0,3.87-.3,5.64-.89,1.22-.41,2.37-1.03,3.46-1.83v-11.69h3.53v13.28c-1.66,1.46-3.6,2.56-5.82,3.31-2.22.75-4.54,1.12-6.96,1.12-2.65,0-5.1-.44-7.34-1.32-2.24-.88-4.18-2.11-5.82-3.71-1.64-1.59-2.92-3.46-3.83-5.62-.91-2.15-1.37-4.51-1.37-7.06s.46-4.91,1.37-7.06c.91-2.15,2.2-4.03,3.85-5.62,1.66-1.59,3.61-2.83,5.84-3.7,2.24-.88,4.68-1.32,7.34-1.32s5.08.41,7.29,1.24c2.2.83,4.09,2.09,5.64,3.78l-2.29,2.34c-1.46-1.46-3.07-2.5-4.82-3.13-1.76-.63-3.65-.94-5.67-.94-2.16,0-4.14.36-5.94,1.07-1.81.71-3.38,1.72-4.72,3.03-1.34,1.31-2.39,2.83-3.13,4.58ZM477.97,801.18h3.63v34.81h-3.03l-22.38-28.23v28.23h-3.68v-34.81h3.03l22.43,28.23v-28.23ZM537.32,822.37c.78,1.13,1.17,2.6,1.17,4.43,0,1.69-.46,3.26-1.39,4.7-.93,1.44-2.35,2.6-4.25,3.48-1.91.88-4.35,1.32-7.34,1.32-2.59,0-5.07-.42-7.44-1.27-2.37-.85-4.2-1.93-5.5-3.26l1.44-2.83c1.23,1.19,2.88,2.2,4.95,3.01,2.07.81,4.25,1.22,6.54,1.22s3.97-.27,5.35-.82c1.38-.55,2.39-1.28,3.03-2.21.65-.93.97-1.96.97-3.08,0-1.36-.39-2.45-1.17-3.28-.78-.83-1.8-1.48-3.06-1.96-1.26-.48-2.65-.9-4.18-1.27-1.52-.36-3.05-.75-4.57-1.17-1.53-.41-2.93-.97-4.2-1.67-1.28-.7-2.3-1.62-3.08-2.76-.78-1.14-1.17-2.64-1.17-4.5,0-1.72.46-3.31,1.37-4.75.91-1.44,2.31-2.6,4.2-3.48,1.89-.88,4.31-1.32,7.26-1.32,1.96,0,3.9.27,5.82.82,1.92.55,3.58,1.3,4.97,2.26l-1.24,2.93c-1.49-1-3.08-1.72-4.75-2.19-1.67-.46-3.29-.7-4.85-.7-2.09,0-3.81.28-5.17.85-1.36.56-2.36,1.32-3.01,2.26-.65.94-.97,2.01-.97,3.21,0,1.36.39,2.45,1.17,3.28.78.83,1.81,1.48,3.08,1.94,1.28.46,2.68.88,4.2,1.24,1.52.37,3.04.76,4.55,1.19,1.51.43,2.9.99,4.18,1.67,1.28.68,2.3,1.58,3.08,2.71ZM546,801.18h28.15v3.18h-12.23v31.63h-3.68v-31.63h-12.23v-3.18ZM609.71,801.18h3.58v19.94c0,5.01-1.27,8.79-3.81,11.34-2.54,2.55-6.03,3.83-10.47,3.83s-7.94-1.28-10.49-3.83c-2.55-2.55-3.83-6.33-3.83-11.34v-19.94h3.68v19.79c0,4.11.93,7.14,2.79,9.1,1.86,1.96,4.48,2.93,7.86,2.93s6.05-.98,7.91-2.93c1.86-1.96,2.79-4.99,2.79-9.1v-19.79ZM653.3,803.39c-2.8-1.47-6.06-2.21-9.77-2.21h-14.17v34.81h14.17c3.71,0,6.97-.74,9.77-2.21,2.8-1.48,4.98-3.52,6.54-6.14,1.56-2.62,2.34-5.64,2.34-9.05s-.78-6.43-2.34-9.05c-1.56-2.62-3.74-4.67-6.54-6.14ZM656.66,825.97c-1.26,2.14-3.03,3.81-5.3,5.02-2.27,1.21-4.95,1.81-8.03,1.81h-10.3v-28.45h10.3c3.08,0,5.76.61,8.03,1.81,2.27,1.21,4.04,2.88,5.3,5,1.26,2.12,1.89,4.59,1.89,7.41s-.63,5.25-1.89,7.39ZM675.4,801.18h3.68v34.81h-3.68v-34.81ZM723.67,805.9c-1.64-1.59-3.57-2.83-5.79-3.7-2.22-.88-4.64-1.32-7.26-1.32s-5.09.44-7.31,1.32c-2.22.88-4.15,2.12-5.79,3.73-1.64,1.61-2.92,3.48-3.83,5.62-.91,2.14-1.37,4.48-1.37,7.04s.46,4.9,1.37,7.04c.91,2.14,2.19,4.01,3.83,5.62,1.64,1.61,3.58,2.85,5.82,3.73,2.24.88,4.67,1.32,7.29,1.32s5.04-.44,7.26-1.32c2.22-.88,4.15-2.11,5.79-3.71,1.64-1.59,2.92-3.46,3.83-5.62.91-2.15,1.37-4.51,1.37-7.06s-.46-4.91-1.37-7.06c-.91-2.15-2.19-4.03-3.83-5.62ZM724.09,824.33c-.73,1.74-1.75,3.27-3.06,4.58-1.31,1.31-2.85,2.32-4.63,3.03-1.77.71-3.7,1.07-5.79,1.07s-4.03-.36-5.82-1.07c-1.79-.71-3.35-1.72-4.67-3.03-1.33-1.31-2.35-2.84-3.08-4.6-.73-1.76-1.09-3.66-1.09-5.72s.36-4,1.09-5.74c.73-1.74,1.76-3.27,3.08-4.58,1.33-1.31,2.88-2.32,4.67-3.03,1.79-.71,3.73-1.07,5.82-1.07s4.02.36,5.79,1.07c1.77.71,3.31,1.72,4.63,3.03,1.31,1.31,2.33,2.83,3.06,4.58.73,1.74,1.09,3.66,1.09,5.74s-.37,4-1.09,5.74ZM320.33,766.22l-23.54-58.8h-8.38l-23.45,58.8h8.38l10.39-25.97h25.04l1.84,4.69c1.34,3.46,2.35,6.73,3.02,9.8.67,3.07,1.37,6.9,2.09,11.48h4.61ZM284.15,739.08l12.06-30.24,12.06,30.24h-24.12ZM395.55,707.42l8.12,58.8h-8.38l-6.95-50.93-17.17,50.93h-5.61l-19.85-56.54-4.02,34.34c-.73,6.09-1.09,11.2-1.09,15.33,0,2.57.11,4.86.33,6.87h-5.78c2.62-7.26,4.44-14.69,5.45-22.28l4.35-36.52h8.38l18.51,52.6,17.84-52.6h5.86ZM431.98,708.59v23.96h29.99v1.17h-29.99v31.33c8.49,0,15.38-.32,20.69-.96,5.3-.64,10.3-1.88,14.99-3.73v5.86h-44.06v-58.8h42.8v5.86c-4.13-1.73-8.87-2.95-14.2-3.64-5.33-.7-12.08-1.05-20.23-1.05ZM492.38,708.59v23.96h29.99v1.17h-29.99v31.33c8.49,0,15.38-.32,20.69-.96,5.3-.64,10.3-1.88,14.99-3.73v5.86h-44.06v-58.8h42.8v5.86c-4.13-1.73-8.87-2.95-14.2-3.64-5.33-.7-12.08-1.05-20.23-1.05ZM576.72,742.51c-.5-1.06-1.12-1.91-1.84-2.55-.73-.64-1.7-1.19-2.93-1.63,2.96-.5,5.49-1.59,7.58-3.27,2.09-1.67,3.66-3.67,4.69-5.99,1.03-2.32,1.55-4.7,1.55-7.16s-.63-4.95-1.88-7.16c-1.26-2.21-3.2-3.98-5.82-5.32-2.62-1.34-5.84-2.01-9.63-2.01h-24.04v58.8h8.38v-21.78c1.84-1.67,3.71-2.99,5.61-3.94,1.9-.95,3.49-1.42,4.77-1.42,2.07,0,3.57.98,4.52,2.93l12.31,24.21h8.38l-11.64-23.7ZM566.84,737.32c-2.29-.11-4.64.38-7.04,1.47-2.4,1.09-4.75,2.58-7.04,4.48v-34.68h10.47c3.24,0,5.99.67,8.25,2.01,2.26,1.34,3.95,3.13,5.07,5.36,1.12,2.23,1.68,4.69,1.68,7.37,0,2.46-.46,4.79-1.38,6.99-.92,2.21-2.25,3.95-3.98,5.24-1.73,1.28-3.74,1.87-6.03,1.76ZM650.6,744.94c1.34,3.46,2.35,6.73,3.02,9.8.67,3.07,1.37,6.9,2.09,11.48h4.61l-23.54-58.8h-8.38l-23.45,58.8h8.38l10.39-25.97h25.04l1.84,4.69ZM624.13,739.08l12.06-30.24,12.06,30.24h-24.12ZM715.35,733.55h-29.48v32.67h-8.38v-58.8h8.38v24.88h29.48v-24.88h8.38v58.8h-8.38v-32.67ZM245.91,173.03v460.04c-.9,14.05-.9,27.74.02,40.97l.18,2.57,4.32,4.32,2.57.18c6.66.46,13.43.69,20.3.69,46.86,0,98.53-10.71,150.76-31.37,21.81-8.63,43.23-18.83,63.98-30.43h252.95v53.57h13.77V173.03H245.91ZM736.04,241.79h-212.43c58.01-30.99,129.63-53.4,215.99-54.37-.21,18.82-1.45,36.94-3.57,54.37ZM734.17,255.56c-19.61,129.87-88.41,220.08-147.73,275.66-31.05,29.09-65.69,54.37-101.92,75h-222.06c12.97-90.45,61.51-188.97,133.34-265.64,26.52-28.31,60.94-58.77,103.78-85.02h234.59ZM631.03,186.8c-30.99,7.35-61.06,17.74-90.02,31.16-15.4,7.14-30.41,15.09-45,23.83h-236.33v-54.99h371.36ZM259.68,255.56h214.63c-31.78,21.36-61.41,46.64-88.55,75.61-46.64,49.77-84.38,109.18-109.16,171.81-6.7,16.93-12.35,33.8-16.93,50.46V255.56ZM273.7,668.04c-4.71,0-9.39-.12-14.02-.34v-35.02c.28-4.21.65-8.44,1.09-12.69h197.97c-61.62,30.77-126.39,48.05-185.03,48.05ZM511.31,606.22c30.19-18.87,58.68-40.7,84.55-64.95,48.38-45.33,86.46-97.56,113.2-155.25,13.88-29.95,24.54-61.09,31.92-93.21v313.41h-229.68Z"/>
</svg>