<?xml version="1.0" encoding="UTF-8"?>
<svg id="Layer_2" data-name="Layer 2" xmlns="http://www.w3.org/2000/svg" viewBox="0 0 1000 300">
  <defs>
    <style>
      .cls-1, .cls-2 {
        stroke: #000;
        stroke-miterlimit: 10;
      }

      .cls-2 {
        stroke-width: .75px;
      }
    </style>
  </defs>
  <path class="cls-1" d="M36.44,58.49v166.6c-.33,5.09-.33,10.05,0,14.84l.06.93,1.56,1.56.93.06c2.41.17,4.86.25,7.35.25,16.97,0,35.68-3.88,54.6-11.36,7.9-3.12,15.65-6.82,23.17-11.02h91.6v19.4h4.99V58.49H36.44ZM213.94,83.39h-76.93c21.01-11.22,46.94-19.34,78.22-19.69-.08,6.82-.53,13.38-1.29,19.69ZM213.26,88.38c-7.1,47.03-32.02,79.7-53.5,99.82-11.24,10.54-23.79,19.69-36.91,27.16H42.44c4.7-32.75,22.27-68.43,48.29-96.2,9.6-10.25,22.07-21.28,37.58-30.79h84.95ZM175.91,63.48c-11.22,2.66-22.11,6.42-32.6,11.28-5.58,2.58-11.01,5.47-16.3,8.63H41.43v-19.91h134.48ZM41.43,88.38h77.73c-11.51,7.74-22.24,16.89-32.07,27.38-16.89,18.02-30.56,39.54-39.53,62.22-2.42,6.13-4.47,12.24-6.13,18.27v-107.87ZM46.51,237.75c-1.71,0-3.4-.04-5.08-.12v-12.68c.1-1.52.23-3.06.39-4.6h71.69c-22.31,11.14-45.77,17.4-67.01,17.4ZM132.55,215.37c10.93-6.83,21.25-14.74,30.62-23.52,17.52-16.42,31.31-35.33,40.99-56.22,5.03-10.85,8.89-22.12,11.56-33.75v113.5h-83.17Z"/>
  <g>
    <g>
      <path class="cls-2" d="M306.69,241.08v-49.77h20.26c5.31,0,9.97,1.06,13.97,3.16,4.01,2.11,7.12,5.04,9.35,8.78,2.23,3.74,3.34,8.06,3.34,12.94s-1.11,9.2-3.34,12.94c-2.23,3.74-5.34,6.67-9.35,8.78-4.01,2.11-8.66,3.16-13.97,3.16h-20.26ZM311.95,236.53h14.72c4.41,0,8.24-.86,11.48-2.6,3.25-1.73,5.77-4.12,7.57-7.18,1.8-3.06,2.7-6.58,2.7-10.56s-.9-7.56-2.7-10.59c-1.8-3.03-4.33-5.41-7.57-7.15-3.25-1.73-7.07-2.6-11.48-2.6h-14.72v40.67Z"/>
      <path class="cls-2" d="M377.79,236.53h29.93v4.55h-35.2v-49.77h34.13v4.55h-28.87v40.67ZM377.22,213.56h26.31v4.48h-26.31v-4.48Z"/>
      <path class="cls-2" d="M440.93,241.51c-3.7,0-7.24-.6-10.63-1.81-3.39-1.21-6.01-2.76-7.86-4.66l2.06-4.05c1.75,1.71,4.11,3.14,7.07,4.3,2.96,1.16,6.08,1.74,9.35,1.74s5.68-.39,7.64-1.17c1.97-.78,3.41-1.84,4.34-3.16.92-1.33,1.39-2.8,1.39-4.41,0-1.94-.56-3.51-1.67-4.69-1.11-1.18-2.57-2.12-4.37-2.81-1.8-.69-3.79-1.29-5.97-1.81-2.18-.52-4.36-1.08-6.54-1.67-2.18-.59-4.18-1.39-6.01-2.38-1.83-1-3.3-2.31-4.41-3.95-1.11-1.64-1.67-3.78-1.67-6.43,0-2.46.65-4.73,1.96-6.79,1.3-2.06,3.31-3.72,6.01-4.98,2.7-1.26,6.16-1.88,10.38-1.88,2.8,0,5.57.39,8.32,1.17,2.75.78,5.12,1.86,7.11,3.23l-1.78,4.2c-2.13-1.42-4.4-2.46-6.79-3.13-2.39-.66-4.7-1-6.93-1-2.99,0-5.45.4-7.39,1.21-1.94.81-3.38,1.88-4.3,3.24s-1.39,2.88-1.39,4.59c0,1.94.56,3.51,1.67,4.69,1.11,1.19,2.58,2.11,4.41,2.77,1.82.66,3.83,1.26,6.01,1.78,2.18.52,4.35,1.09,6.51,1.71,2.16.62,4.15,1.41,5.97,2.38,1.82.97,3.29,2.26,4.41,3.87,1.11,1.61,1.67,3.72,1.67,6.33,0,2.42-.66,4.66-1.99,6.72-1.33,2.06-3.35,3.72-6.08,4.98-2.73,1.26-6.22,1.88-10.49,1.88Z"/>
      <path class="cls-2" d="M478.04,241.08v-49.77h5.26v49.77h-5.26Z"/>
      <path class="cls-2" d="M528.45,241.51c-3.79,0-7.29-.63-10.49-1.88-3.2-1.26-5.97-3.02-8.32-5.3-2.35-2.28-4.17-4.95-5.47-8.03-1.3-3.08-1.96-6.45-1.96-10.1s.65-7.01,1.96-10.1c1.3-3.08,3.14-5.76,5.51-8.03,2.37-2.27,5.15-4.04,8.35-5.3,3.2-1.26,6.69-1.88,10.49-1.88s7.26.59,10.42,1.78c3.15,1.19,5.84,2.99,8.07,5.4l-3.27,3.34c-2.09-2.08-4.39-3.58-6.9-4.48-2.51-.9-5.21-1.35-8.11-1.35-3.08,0-5.91.51-8.5,1.53-2.58,1.02-4.83,2.47-6.75,4.34-1.92,1.87-3.41,4.05-4.48,6.54-1.07,2.49-1.6,5.23-1.6,8.21s.53,5.66,1.6,8.18c1.07,2.51,2.56,4.71,4.48,6.58,1.92,1.87,4.17,3.32,6.75,4.34,2.58,1.02,5.39,1.53,8.43,1.53,2.84,0,5.53-.43,8.07-1.28,2.54-.85,4.87-2.3,7-4.34l2.99,3.98c-2.37,2.09-5.14,3.66-8.32,4.73-3.18,1.07-6.49,1.6-9.95,1.6ZM541.68,234.54v-18.34h5.05v18.98l-5.05-.64Z"/>
      <path class="cls-2" d="M568.7,241.08v-49.77h4.34l34.34,43.23h-2.28v-43.23h5.19v49.77h-4.34l-34.27-43.23h2.28v43.23h-5.26Z"/>
      <path class="cls-2" d="M673.07,241.51c-3.7,0-7.24-.6-10.63-1.81-3.39-1.21-6.01-2.76-7.86-4.66l2.06-4.05c1.75,1.71,4.11,3.14,7.07,4.3,2.96,1.16,6.08,1.74,9.35,1.74s5.68-.39,7.64-1.17c1.97-.78,3.41-1.84,4.34-3.16.92-1.33,1.39-2.8,1.39-4.41,0-1.94-.56-3.51-1.67-4.69-1.11-1.18-2.57-2.12-4.37-2.81-1.8-.69-3.79-1.29-5.97-1.81-2.18-.52-4.36-1.08-6.54-1.67-2.18-.59-4.18-1.39-6.01-2.38-1.83-1-3.3-2.31-4.41-3.95-1.11-1.64-1.67-3.78-1.67-6.43,0-2.46.65-4.73,1.96-6.79,1.3-2.06,3.31-3.72,6.01-4.98,2.7-1.26,6.16-1.88,10.38-1.88,2.8,0,5.57.39,8.32,1.17,2.75.78,5.12,1.86,7.11,3.23l-1.78,4.2c-2.13-1.42-4.4-2.46-6.79-3.13-2.39-.66-4.7-1-6.93-1-2.99,0-5.45.4-7.39,1.21-1.94.81-3.38,1.88-4.3,3.24s-1.39,2.88-1.39,4.59c0,1.94.56,3.51,1.67,4.69,1.11,1.19,2.58,2.11,4.41,2.77,1.82.66,3.83,1.26,6.01,1.78,2.18.52,4.35,1.09,6.51,1.71,2.16.62,4.15,1.41,5.97,2.38,1.82.97,3.29,2.26,4.41,3.87,1.11,1.61,1.67,3.72,1.67,6.33,0,2.42-.66,4.66-1.99,6.72-1.33,2.06-3.35,3.72-6.08,4.98-2.73,1.26-6.22,1.88-10.49,1.88Z"/>
      <path class="cls-2" d="M719.86,241.08v-45.22h-17.49v-4.55h40.24v4.55h-17.49v45.22h-5.26Z"/>
      <path class="cls-2" d="M778.16,241.51c-6.35,0-11.35-1.82-15-5.47-3.65-3.65-5.47-9.05-5.47-16.21v-28.51h5.26v28.3c0,5.88,1.33,10.22,3.98,13.01,2.65,2.8,6.4,4.2,11.23,4.2s8.65-1.4,11.3-4.2c2.65-2.8,3.98-7.13,3.98-13.01v-28.3h5.12v28.51c0,7.16-1.81,12.56-5.44,16.21-3.63,3.65-8.62,5.47-14.97,5.47Z"/>
      <path class="cls-2" d="M821.53,241.08v-49.77h20.26c5.31,0,9.97,1.06,13.97,3.16,4.01,2.11,7.12,5.04,9.35,8.78,2.23,3.74,3.34,8.06,3.34,12.94s-1.11,9.2-3.34,12.94c-2.23,3.74-5.35,6.67-9.35,8.78-4.01,2.11-8.66,3.16-13.97,3.16h-20.26ZM826.79,236.53h14.72c4.41,0,8.24-.86,11.48-2.6,3.25-1.73,5.77-4.12,7.57-7.18s2.7-6.58,2.7-10.56-.9-7.56-2.7-10.59c-1.8-3.03-4.33-5.41-7.57-7.15-3.25-1.73-7.08-2.6-11.48-2.6h-14.72v40.67Z"/>
      <path class="cls-2" d="M887.37,241.08v-49.77h5.26v49.77h-5.26Z"/>
      <path class="cls-2" d="M937.71,241.51c-3.75,0-7.22-.63-10.42-1.88-3.2-1.26-5.97-3.03-8.32-5.33-2.35-2.3-4.17-4.98-5.47-8.03-1.3-3.06-1.96-6.41-1.96-10.06s.65-7,1.96-10.06c1.3-3.06,3.13-5.73,5.47-8.03,2.35-2.3,5.11-4.08,8.28-5.33,3.17-1.26,6.66-1.88,10.45-1.88s7.2.63,10.38,1.88c3.18,1.26,5.94,3.02,8.28,5.3,2.35,2.28,4.17,4.95,5.48,8.03,1.3,3.08,1.96,6.45,1.96,10.1s-.65,7.02-1.96,10.1c-1.3,3.08-3.13,5.76-5.48,8.03-2.35,2.27-5.11,4.04-8.28,5.3-3.18,1.26-6.64,1.88-10.38,1.88ZM937.71,236.81c2.99,0,5.75-.51,8.28-1.53,2.53-1.02,4.74-2.46,6.61-4.34,1.87-1.87,3.33-4.05,4.37-6.54,1.04-2.49,1.56-5.23,1.56-8.21s-.52-5.72-1.56-8.21c-1.04-2.49-2.5-4.67-4.37-6.54-1.87-1.87-4.08-3.32-6.61-4.34-2.54-1.02-5.3-1.53-8.28-1.53s-5.76.51-8.32,1.53c-2.56,1.02-4.79,2.47-6.68,4.34-1.9,1.87-3.37,4.05-4.41,6.54s-1.56,5.23-1.56,8.21.52,5.66,1.56,8.18c1.04,2.51,2.51,4.71,4.41,6.58,1.89,1.87,4.12,3.32,6.68,4.34,2.56,1.02,5.33,1.53,8.32,1.53Z"/>
    </g>
    <g>
      <path class="cls-2" d="M307.32,141.33l33.53-84.06h11.97l33.65,84.06h-6.59c-1.04-6.54-2.04-12.01-2.99-16.41-.96-4.39-2.39-9.06-4.31-14.01l-2.63-6.71h-35.8l-14.85,37.12h-11.98ZM351.99,59.3l-17.24,43.23h34.49l-17.24-43.23Z"/>
      <path class="cls-2" d="M407.67,141.33c3.75-10.38,6.35-21,7.78-31.85l6.23-52.21h11.97l26.46,75.2,25.51-75.2h8.38l11.62,84.06h-11.97l-9.94-72.81-24.55,72.81h-8.02l-28.38-80.83-5.75,49.1c-1.04,8.7-1.56,16.01-1.56,21.91,0,3.67.16,6.94.48,9.82h-8.26Z"/>
      <path class="cls-2" d="M546.09,139.65c12.13,0,21.99-.46,29.58-1.38,7.58-.92,14.73-2.69,21.44-5.33v8.38h-62.99V57.27h61.19v8.38c-5.91-2.47-12.67-4.21-20.3-5.21-7.62-1-17.26-1.5-28.92-1.5v34.25h42.87v1.68h-42.87v44.79Z"/>
      <path class="cls-2" d="M632.43,139.65c12.13,0,21.99-.46,29.58-1.38,7.58-.92,14.73-2.69,21.44-5.33v8.38h-62.99V57.27h61.19v8.38c-5.91-2.47-12.67-4.21-20.3-5.21-7.62-1-17.26-1.5-28.92-1.5v34.25h42.87v1.68h-42.87v44.79Z"/>
      <path class="cls-2" d="M769.66,141.33h-11.97l-17.6-34.61c-1.36-2.79-3.51-4.19-6.47-4.19-1.84,0-4.11.68-6.83,2.04-2.72,1.36-5.39,3.23-8.02,5.63v31.13h-11.97V57.27h34.37c5.43,0,10.02.96,13.77,2.87,3.75,1.92,6.53,4.45,8.32,7.6,1.8,3.15,2.69,6.57,2.69,10.24s-.74,6.93-2.21,10.24c-1.48,3.31-3.71,6.17-6.71,8.56-2.99,2.4-6.61,3.95-10.84,4.67,1.76.64,3.15,1.42,4.19,2.34,1.04.92,1.92,2.14,2.63,3.65l16.65,33.89ZM747.51,97.5c2.47-1.84,4.37-4.33,5.69-7.48,1.32-3.15,1.98-6.48,1.98-10,0-3.83-.8-7.34-2.4-10.54-1.6-3.19-4.01-5.75-7.24-7.66-3.23-1.92-7.17-2.87-11.8-2.87h-14.97v49.58c3.27-2.71,6.63-4.85,10.06-6.41,3.43-1.56,6.78-2.25,10.06-2.1,3.27.16,6.15-.68,8.62-2.51Z"/>
      <path class="cls-2" d="M793.37,141.33l33.53-84.06h11.98l33.65,84.06h-6.58c-1.04-6.54-2.04-12.01-2.99-16.41-.96-4.39-2.4-9.06-4.31-14.01l-2.63-6.71h-35.8l-14.85,37.12h-11.98ZM838.04,59.3l-17.24,43.23h34.49l-17.24-43.23Z"/>
      <path class="cls-2" d="M951.2,92.83v-35.57h11.97v84.06h-11.97v-46.7h-42.15v46.7h-11.97V57.27h11.97v35.57h42.15Z"/>
    </g>
  </g>
</svg>